ISO-10303-21;
HEADER;

/* File generated by Shapr3D Version 26.160.0.11640 */

FILE_DESCRIPTION(('HOOPS Exchange Step'),'2;1');

FILE_NAME('/Users/mark/Library/Containers/com.shapr3d.shapr/Data/tmp/export/temp_export',
'2026-09-01T21:46:21+20:00',
('mark'),
('Shapr3D Limited'),
'HOOPS Exchange 2026.3',
'Shapr3D',
'Authorized');

FILE_SCHEMA( ('AP242_MANAGED_MODEL_BASED_3D_ENGINEERING_MIM_LF {1 0 10303 442 1 1 4}') );

ENDSEC;

DATA;
#3=(NAMED_UNIT(*)PLANE_ANGLE_UNIT()SI_UNIT($,.RADIAN.));
#4=PLANE_ANGLE_MEASURE_WITH_UNIT(PLANE_ANGLE_MEASURE(0.0174532925),#3);
#5=(CONVERSION_BASED_UNIT('DEGREE',#4)NAMED_UNIT(#6)PLANE_ANGLE_UNIT());
#6=DIMENSIONAL_EXPONENTS(0.,0.,0.,0.,0.,0.,0.);
#7=(NAMED_UNIT(*)SI_UNIT($,.STERADIAN.)SOLID_ANGLE_UNIT());
#8=(LENGTH_UNIT()NAMED_UNIT(*)SI_UNIT(.MILLI.,.METRE.));
#9=UNCERTAINTY_MEASURE_WITH_UNIT(LENGTH_MEASURE(1.000000E-05),#8,'DISTANCE_ACCURACY_VALUE','Maximum Tolerance applied to model');
#10=(GEOMETRIC_REPRESENTATION_CONTEXT(3)GLOBAL_UNCERTAINTY_ASSIGNED_CONTEXT((#9))GLOBAL_UNIT_ASSIGNED_CONTEXT((#8,#5,#7))REPRESENTATION_CONTEXT('','root'));
#12=CARTESIAN_POINT('',(0.,0.,0.));
#13=DIRECTION('',(0.,0.,1.));
#14=DIRECTION('',(1.,0.,0.));
#15=AXIS2_PLACEMENT_3D('',#12,#13,#14);
#27=CARTESIAN_POINT('',(-8.,24.,-3.));
#28=DIRECTION('',(0.,0.,1.));
#29=DIRECTION('',(1.,0.,-0.));
#30=AXIS2_PLACEMENT_3D('',#27,#28,#29);
#31=CYLINDRICAL_SURFACE('',#30,1.5);
#32=CARTESIAN_POINT('',(-6.5,24.,1.));
#33=VERTEX_POINT('',#32);
#34=CARTESIAN_POINT('',(-6.5,24.,-1.));
#35=VERTEX_POINT('',#34);
#36=CARTESIAN_POINT('',(-6.5,24.,1.));
#37=DIRECTION('',(-0.,-0.,-1.));
#38=VECTOR('',#37,2.);
#39=LINE('',#36,#38);
#40=EDGE_CURVE('',#33,#35,#39,.T.);
#41=ORIENTED_EDGE('',*,*,#40,.F.);
#42=CARTESIAN_POINT('',(-8.,24.,1.));
#43=DIRECTION('',(0.,0.,1.));
#44=DIRECTION('',(1.,0.,-0.));
#45=AXIS2_PLACEMENT_3D('',#42,#43,#44);
#46=CIRCLE('',#45,1.5);
#47=EDGE_CURVE('',#33,#33,#46,.T.);
#48=ORIENTED_EDGE('',*,*,#47,.T.);
#49=ORIENTED_EDGE('',*,*,#40,.T.);
#50=CARTESIAN_POINT('',(-8.,24.,-1.));
#51=DIRECTION('',(0.,0.,1.));
#52=DIRECTION('',(1.,0.,-0.));
#53=AXIS2_PLACEMENT_3D('',#50,#51,#52);
#54=CIRCLE('',#53,1.5);
#55=EDGE_CURVE('',#35,#35,#54,.T.);
#56=ORIENTED_EDGE('',*,*,#55,.F.);
#57=EDGE_LOOP('',(#41,#48,#49,#56));
#58=FACE_BOUND('',#57,.T.);
#59=ADVANCED_FACE('',(#58),#31,.F.);
#60=CARTESIAN_POINT('',(-16.183491796,-18.52898486,-3.));
#61=DIRECTION('',(0.,0.,1.));
#62=DIRECTION('',(1.,0.,-0.));
#63=AXIS2_PLACEMENT_3D('',#60,#61,#62);
#64=CYLINDRICAL_SURFACE('',#63,1.5);
#65=CARTESIAN_POINT('',(-14.683491796,-18.52898486,1.));
#66=VERTEX_POINT('',#65);
#67=CARTESIAN_POINT('',(-14.683491796,-18.52898486,-1.));
#68=VERTEX_POINT('',#67);
#69=CARTESIAN_POINT('',(-14.683491796,-18.52898486,1.));
#70=DIRECTION('',(-0.,-0.,-1.));
#71=VECTOR('',#70,2.);
#72=LINE('',#69,#71);
#73=EDGE_CURVE('',#66,#68,#72,.T.);
#74=ORIENTED_EDGE('',*,*,#73,.F.);
#75=CARTESIAN_POINT('',(-16.183491796,-18.52898486,1.));
#76=DIRECTION('',(0.,0.,1.));
#77=DIRECTION('',(1.,0.,-0.));
#78=AXIS2_PLACEMENT_3D('',#75,#76,#77);
#79=CIRCLE('',#78,1.5);
#80=EDGE_CURVE('',#66,#66,#79,.T.);
#81=ORIENTED_EDGE('',*,*,#80,.T.);
#82=ORIENTED_EDGE('',*,*,#73,.T.);
#83=CARTESIAN_POINT('',(-16.183491796,-18.52898486,-1.));
#84=DIRECTION('',(0.,0.,1.));
#85=DIRECTION('',(1.,0.,-0.));
#86=AXIS2_PLACEMENT_3D('',#83,#84,#85);
#87=CIRCLE('',#86,1.5);
#88=EDGE_CURVE('',#68,#68,#87,.T.);
#89=ORIENTED_EDGE('',*,*,#88,.F.);
#90=EDGE_LOOP('',(#74,#81,#82,#89));
#91=FACE_BOUND('',#90,.T.);
#92=ADVANCED_FACE('',(#91),#64,.F.);
#93=CARTESIAN_POINT('',(45.38282007,17.233068123,-3.));
#94=DIRECTION('',(0.,0.,1.));
#95=DIRECTION('',(1.,0.,-0.));
#96=AXIS2_PLACEMENT_3D('',#93,#94,#95);
#97=CYLINDRICAL_SURFACE('',#96,1.5);
#98=CARTESIAN_POINT('',(46.88282007,17.233068123,1.));
#99=VERTEX_POINT('',#98);
#100=CARTESIAN_POINT('',(46.88282007,17.233068123,-1.));
#101=VERTEX_POINT('',#100);
#102=CARTESIAN_POINT('',(46.88282007,17.233068123,1.));
#103=DIRECTION('',(-0.,-0.,-1.));
#104=VECTOR('',#103,2.);
#105=LINE('',#102,#104);
#106=EDGE_CURVE('',#99,#101,#105,.T.);
#107=ORIENTED_EDGE('',*,*,#106,.F.);
#108=CARTESIAN_POINT('',(45.38282007,17.233068123,1.));
#109=DIRECTION('',(0.,0.,1.));
#110=DIRECTION('',(1.,0.,-0.));
#111=AXIS2_PLACEMENT_3D('',#108,#109,#110);
#112=CIRCLE('',#111,1.5);
#113=EDGE_CURVE('',#99,#99,#112,.T.);
#114=ORIENTED_EDGE('',*,*,#113,.T.);
#115=ORIENTED_EDGE('',*,*,#106,.T.);
#116=CARTESIAN_POINT('',(43.88282007,17.233068123,-1.));
#117=VERTEX_POINT('',#116);
#118=CARTESIAN_POINT('',(45.38282007,17.233068123,-1.));
#119=DIRECTION('',(-0.,-0.,1.));
#120=DIRECTION('',(-1.,0.,0.));
#121=AXIS2_PLACEMENT_3D('',#118,#119,#120);
#122=CIRCLE('',#121,1.5);
#123=EDGE_CURVE('',#117,#101,#122,.T.);
#124=ORIENTED_EDGE('',*,*,#123,.F.);
#125=CARTESIAN_POINT('',(45.38282007,17.233068123,-1.));
#126=DIRECTION('',(-0.,-0.,1.));
#127=DIRECTION('',(-1.,0.,0.));
#128=AXIS2_PLACEMENT_3D('',#125,#126,#127);
#129=CIRCLE('',#128,1.5);
#130=EDGE_CURVE('',#101,#117,#129,.T.);
#131=ORIENTED_EDGE('',*,*,#130,.F.);
#132=EDGE_LOOP('',(#107,#114,#115,#124,#131));
#133=FACE_BOUND('',#132,.T.);
#134=ADVANCED_FACE('',(#133),#97,.F.);
#135=CARTESIAN_POINT('',(45.38282007,-17.363445833,-3.));
#136=DIRECTION('',(0.,0.,1.));
#137=DIRECTION('',(1.,0.,-0.));
#138=AXIS2_PLACEMENT_3D('',#135,#136,#137);
#139=CYLINDRICAL_SURFACE('',#138,1.5);
#140=CARTESIAN_POINT('',(46.88282007,-17.363445833,1.));
#141=VERTEX_POINT('',#140);
#142=CARTESIAN_POINT('',(46.88282007,-17.363445833,-1.));
#143=VERTEX_POINT('',#142);
#144=CARTESIAN_POINT('',(46.88282007,-17.363445833,1.));
#145=DIRECTION('',(-0.,-0.,-1.));
#146=VECTOR('',#145,2.);
#147=LINE('',#144,#146);
#148=EDGE_CURVE('',#141,#143,#147,.T.);
#149=ORIENTED_EDGE('',*,*,#148,.F.);
#150=CARTESIAN_POINT('',(45.38282007,-17.363445833,1.));
#151=DIRECTION('',(0.,0.,1.));
#152=DIRECTION('',(1.,0.,-0.));
#153=AXIS2_PLACEMENT_3D('',#150,#151,#152);
#154=CIRCLE('',#153,1.5);
#155=EDGE_CURVE('',#141,#141,#154,.T.);
#156=ORIENTED_EDGE('',*,*,#155,.T.);
#157=ORIENTED_EDGE('',*,*,#148,.T.);
#158=CARTESIAN_POINT('',(43.88282007,-17.363445833,-1.));
#159=VERTEX_POINT('',#158);
#160=CARTESIAN_POINT('',(45.38282007,-17.363445833,-1.));
#161=DIRECTION('',(-0.,-0.,1.));
#162=DIRECTION('',(-1.,0.,0.));
#163=AXIS2_PLACEMENT_3D('',#160,#161,#162);
#164=CIRCLE('',#163,1.5);
#165=EDGE_CURVE('',#159,#143,#164,.T.);
#166=ORIENTED_EDGE('',*,*,#165,.F.);
#167=CARTESIAN_POINT('',(45.38282007,-17.363445833,-1.));
#168=DIRECTION('',(-0.,-0.,1.));
#169=DIRECTION('',(-1.,0.,0.));
#170=AXIS2_PLACEMENT_3D('',#167,#168,#169);
#171=CIRCLE('',#170,1.5);
#172=EDGE_CURVE('',#143,#159,#171,.T.);
#173=ORIENTED_EDGE('',*,*,#172,.F.);
#174=EDGE_LOOP('',(#149,#156,#157,#166,#173));
#175=FACE_BOUND('',#174,.T.);
#176=ADVANCED_FACE('',(#175),#139,.F.);
#177=CARTESIAN_POINT('',(34.518826295,19.960390114,-3.));
#178=DIRECTION('',(0.,-1.,0.));
#179=DIRECTION('',(1.,0.,0.));
#180=AXIS2_PLACEMENT_3D('',#177,#178,#179);
#181=PLANE('',#180);
#182=CARTESIAN_POINT('',(23.086336335,19.960390114,-2.));
#183=VERTEX_POINT('',#182);
#184=CARTESIAN_POINT('',(45.,19.960390114,-2.));
#185=VERTEX_POINT('',#184);
#186=CARTESIAN_POINT('',(23.086336335,19.960390114,-2.));
#187=DIRECTION('',(1.,0.,0.));
#188=VECTOR('',#187,21.913663665);
#189=LINE('',#186,#188);
#190=EDGE_CURVE('',#183,#185,#189,.T.);
#191=ORIENTED_EDGE('',*,*,#190,.F.);
#192=CARTESIAN_POINT('',(23.086336335,19.960390114,1.));
#193=VERTEX_POINT('',#192);
#194=CARTESIAN_POINT('',(23.086336335,19.960390114,-2.));
#195=DIRECTION('',(0.,0.,1.));
#196=VECTOR('',#195,3.);
#197=LINE('',#194,#196);
#198=EDGE_CURVE('',#183,#193,#197,.T.);
#199=ORIENTED_EDGE('',*,*,#198,.T.);
#200=CARTESIAN_POINT('',(45.,19.960390114,1.));
#201=VERTEX_POINT('',#200);
#202=CARTESIAN_POINT('',(23.086336335,19.960390114,1.));
#203=DIRECTION('',(1.,0.,0.));
#204=VECTOR('',#203,21.913663665);
#205=LINE('',#202,#204);
#206=EDGE_CURVE('',#193,#201,#205,.T.);
#207=ORIENTED_EDGE('',*,*,#206,.T.);
#208=CARTESIAN_POINT('',(45.,19.960390114,1.));
#209=DIRECTION('',(-0.,-0.,-1.));
#210=VECTOR('',#209,3.);
#211=LINE('',#208,#210);
#212=EDGE_CURVE('',#201,#185,#211,.T.);
#213=ORIENTED_EDGE('',*,*,#212,.T.);
#214=EDGE_LOOP('',(#191,#199,#207,#213));
#215=FACE_BOUND('',#214,.T.);
#216=ADVANCED_FACE('',(#215),#181,.F.);
#217=CARTESIAN_POINT('',(0.,0.,-3.));
#218=DIRECTION('',(0.,0.,1.));
#219=DIRECTION('',(1.,0.,-0.));
#220=AXIS2_PLACEMENT_3D('',#217,#218,#219);
#221=CYLINDRICAL_SURFACE('',#220,29.);
#222=CARTESIAN_POINT('',(19.691286874,21.289744509,1.));
#223=VERTEX_POINT('',#222);
#224=CARTESIAN_POINT('',(19.691286874,-21.289744509,1.));
#225=VERTEX_POINT('',#224);
#226=CARTESIAN_POINT('',(0.,0.,1.));
#227=DIRECTION('',(0.,0.,1.));
#228=DIRECTION('',(1.,0.,-0.));
#229=AXIS2_PLACEMENT_3D('',#226,#227,#228);
#230=CIRCLE('',#229,29.);
#231=EDGE_CURVE('',#223,#225,#230,.T.);
#232=ORIENTED_EDGE('',*,*,#231,.F.);
#233=CARTESIAN_POINT('',(19.691286874,21.289744509,-2.));
#234=VERTEX_POINT('',#233);
#235=CARTESIAN_POINT('',(19.691286874,21.289744509,1.));
#236=DIRECTION('',(-0.,-0.,-1.));
#237=VECTOR('',#236,3.);
#238=LINE('',#235,#237);
#239=EDGE_CURVE('',#223,#234,#238,.T.);
#240=ORIENTED_EDGE('',*,*,#239,.T.);
#241=CARTESIAN_POINT('',(19.691286874,-21.289744509,-2.));
#242=VERTEX_POINT('',#241);
#243=CARTESIAN_POINT('',(0.,0.,-2.));
#244=DIRECTION('',(0.,0.,1.));
#245=DIRECTION('',(1.,0.,-0.));
#246=AXIS2_PLACEMENT_3D('',#243,#244,#245);
#247=CIRCLE('',#246,29.);
#248=EDGE_CURVE('',#234,#242,#247,.T.);
#249=ORIENTED_EDGE('',*,*,#248,.T.);
#250=CARTESIAN_POINT('',(19.691286874,-21.289744509,-2.));
#251=DIRECTION('',(0.,0.,1.));
#252=VECTOR('',#251,3.);
#253=LINE('',#250,#252);
#254=EDGE_CURVE('',#242,#225,#253,.T.);
#255=ORIENTED_EDGE('',*,*,#254,.T.);
#256=EDGE_LOOP('',(#232,#240,#249,#255));
#257=FACE_BOUND('',#256,.T.);
#258=ADVANCED_FACE('',(#257),#221,.T.);
#259=CARTESIAN_POINT('',(34.518826295,-19.960390114,-3.));
#260=DIRECTION('',(0.,1.,0.));
#261=DIRECTION('',(-1.,0.,0.));
#262=AXIS2_PLACEMENT_3D('',#259,#260,#261);
#263=PLANE('',#262);
#264=CARTESIAN_POINT('',(45.,-19.960390114,1.));
#265=VERTEX_POINT('',#264);
#266=CARTESIAN_POINT('',(23.086336335,-19.960390114,1.));
#267=VERTEX_POINT('',#266);
#268=CARTESIAN_POINT('',(45.,-19.960390114,1.));
#269=DIRECTION('',(-1.,0.,0.));
#270=VECTOR('',#269,21.913663665);
#271=LINE('',#268,#270);
#272=EDGE_CURVE('',#265,#267,#271,.T.);
#273=ORIENTED_EDGE('',*,*,#272,.T.);
#274=CARTESIAN_POINT('',(23.086336335,-19.960390114,-2.));
#275=VERTEX_POINT('',#274);
#276=CARTESIAN_POINT('',(23.086336335,-19.960390114,1.));
#277=DIRECTION('',(-0.,-0.,-1.));
#278=VECTOR('',#277,3.);
#279=LINE('',#276,#278);
#280=EDGE_CURVE('',#267,#275,#279,.T.);
#281=ORIENTED_EDGE('',*,*,#280,.T.);
#282=CARTESIAN_POINT('',(45.,-19.960390114,-2.));
#283=VERTEX_POINT('',#282);
#284=CARTESIAN_POINT('',(45.,-19.960390114,-2.));
#285=DIRECTION('',(-1.,0.,0.));
#286=VECTOR('',#285,21.913663665);
#287=LINE('',#284,#286);
#288=EDGE_CURVE('',#283,#275,#287,.T.);
#289=ORIENTED_EDGE('',*,*,#288,.F.);
#290=CARTESIAN_POINT('',(45.,-19.960390114,-2.));
#291=DIRECTION('',(0.,0.,1.));
#292=VECTOR('',#291,3.);
#293=LINE('',#290,#292);
#294=EDGE_CURVE('',#283,#265,#293,.T.);
#295=ORIENTED_EDGE('',*,*,#294,.T.);
#296=EDGE_LOOP('',(#273,#281,#289,#295));
#297=FACE_BOUND('',#296,.T.);
#298=ADVANCED_FACE('',(#297),#263,.F.);
#299=CARTESIAN_POINT('',(48.,0.,-3.));
#300=DIRECTION('',(-1.,0.,0.));
#301=DIRECTION('',(0.,0.,1.));
#302=AXIS2_PLACEMENT_3D('',#299,#300,#301);
#303=PLANE('',#302);
#304=CARTESIAN_POINT('',(48.,16.960390114,1.));
#305=VERTEX_POINT('',#304);
#306=CARTESIAN_POINT('',(48.,-16.960390114,1.));
#307=VERTEX_POINT('',#306);
#308=CARTESIAN_POINT('',(48.,16.960390114,1.));
#309=DIRECTION('',(0.,-1.,0.));
#310=VECTOR('',#309,33.920780228);
#311=LINE('',#308,#310);
#312=EDGE_CURVE('',#305,#307,#311,.T.);
#313=ORIENTED_EDGE('',*,*,#312,.T.);
#314=CARTESIAN_POINT('',(48.,-16.960390114,-2.));
#315=VERTEX_POINT('',#314);
#316=CARTESIAN_POINT('',(48.,-16.960390114,1.));
#317=DIRECTION('',(-0.,-0.,-1.));
#318=VECTOR('',#317,3.);
#319=LINE('',#316,#318);
#320=EDGE_CURVE('',#307,#315,#319,.T.);
#321=ORIENTED_EDGE('',*,*,#320,.T.);
#322=CARTESIAN_POINT('',(48.,16.960390114,-2.));
#323=VERTEX_POINT('',#322);
#324=CARTESIAN_POINT('',(48.,16.960390114,-2.));
#325=DIRECTION('',(0.,-1.,0.));
#326=VECTOR('',#325,33.920780228);
#327=LINE('',#324,#326);
#328=EDGE_CURVE('',#323,#315,#327,.T.);
#329=ORIENTED_EDGE('',*,*,#328,.F.);
#330=CARTESIAN_POINT('',(48.,16.960390114,-2.));
#331=DIRECTION('',(0.,0.,1.));
#332=VECTOR('',#331,3.);
#333=LINE('',#330,#332);
#334=EDGE_CURVE('',#323,#305,#333,.T.);
#335=ORIENTED_EDGE('',*,*,#334,.T.);
#336=EDGE_LOOP('',(#313,#321,#329,#335));
#337=FACE_BOUND('',#336,.T.);
#338=ADVANCED_FACE('',(#337),#303,.F.);
#339=CARTESIAN_POINT('',(0.,0.,-2.));
#340=DIRECTION('',(0.,0.,1.));
#341=DIRECTION('',(1.,0.,0.));
#342=AXIS2_PLACEMENT_3D('',#339,#340,#341);
#343=PLANE('',#342);
#344=CARTESIAN_POINT('',(38.888911128,2.225732431,-2.));
#345=VERTEX_POINT('',#344);
#346=CARTESIAN_POINT('',(38.138911128,2.225732431,-2.));
#347=DIRECTION('',(0.,0.,1.));
#348=DIRECTION('',(1.,0.,-0.));
#349=AXIS2_PLACEMENT_3D('',#346,#347,#348);
#350=CIRCLE('',#349,0.75);
#351=EDGE_CURVE('',#345,#345,#350,.T.);
#352=ORIENTED_EDGE('',*,*,#351,.T.);
#353=EDGE_LOOP('',(#352));
#354=FACE_BOUND('',#353,.T.);
#355=CARTESIAN_POINT('',(29.664462041,2.225732431,-2.));
#356=VERTEX_POINT('',#355);
#357=CARTESIAN_POINT('',(28.914462041,2.225732431,-2.));
#358=DIRECTION('',(0.,0.,1.));
#359=DIRECTION('',(1.,0.,-0.));
#360=AXIS2_PLACEMENT_3D('',#357,#358,#359);
#361=CIRCLE('',#360,0.75);
#362=EDGE_CURVE('',#356,#356,#361,.T.);
#363=ORIENTED_EDGE('',*,*,#362,.T.);
#364=EDGE_LOOP('',(#363));
#365=FACE_BOUND('',#364,.T.);
#366=CARTESIAN_POINT('',(-10.05,24.,-2.));
#367=VERTEX_POINT('',#366);
#368=CARTESIAN_POINT('',(-5.95,24.,-2.));
#369=VERTEX_POINT('',#368);
#370=CARTESIAN_POINT('',(-8.,24.,-2.));
#371=DIRECTION('',(-0.,-0.,-1.));
#372=DIRECTION('',(1.,0.,-0.));
#373=AXIS2_PLACEMENT_3D('',#370,#371,#372);
#374=CIRCLE('',#373,2.05);
#375=EDGE_CURVE('',#367,#369,#374,.T.);
#376=ORIENTED_EDGE('',*,*,#375,.F.);
#377=CARTESIAN_POINT('',(-8.,24.,-2.));
#378=DIRECTION('',(-0.,-0.,-1.));
#379=DIRECTION('',(1.,0.,-0.));
#380=AXIS2_PLACEMENT_3D('',#377,#378,#379);
#381=CIRCLE('',#380,2.05);
#382=EDGE_CURVE('',#369,#367,#381,.T.);
#383=ORIENTED_EDGE('',*,*,#382,.F.);
#384=EDGE_LOOP('',(#376,#383));
#385=FACE_BOUND('',#384,.T.);
#386=CARTESIAN_POINT('',(-18.233491796,-18.52898486,-2.));
#387=VERTEX_POINT('',#386);
#388=CARTESIAN_POINT('',(-14.133491796,-18.52898486,-2.));
#389=VERTEX_POINT('',#388);
#390=CARTESIAN_POINT('',(-16.183491796,-18.52898486,-2.));
#391=DIRECTION('',(-0.,-0.,-1.));
#392=DIRECTION('',(1.,0.,-0.));
#393=AXIS2_PLACEMENT_3D('',#390,#391,#392);
#394=CIRCLE('',#393,2.05);
#395=EDGE_CURVE('',#387,#389,#394,.T.);
#396=ORIENTED_EDGE('',*,*,#395,.F.);
#397=CARTESIAN_POINT('',(-16.183491796,-18.52898486,-2.));
#398=DIRECTION('',(-0.,-0.,-1.));
#399=DIRECTION('',(1.,0.,-0.));
#400=AXIS2_PLACEMENT_3D('',#397,#398,#399);
#401=CIRCLE('',#400,2.05);
#402=EDGE_CURVE('',#389,#387,#401,.T.);
#403=ORIENTED_EDGE('',*,*,#402,.F.);
#404=EDGE_LOOP('',(#396,#403));
#405=FACE_BOUND('',#404,.T.);
#406=CARTESIAN_POINT('',(43.33282007,17.233068123,-2.));
#407=VERTEX_POINT('',#406);
#408=CARTESIAN_POINT('',(47.43282007,17.233068123,-2.));
#409=VERTEX_POINT('',#408);
#410=CARTESIAN_POINT('',(45.38282007,17.233068123,-2.));
#411=DIRECTION('',(-0.,-0.,-1.));
#412=DIRECTION('',(1.,0.,-0.));
#413=AXIS2_PLACEMENT_3D('',#410,#411,#412);
#414=CIRCLE('',#413,2.05);
#415=EDGE_CURVE('',#407,#409,#414,.T.);
#416=ORIENTED_EDGE('',*,*,#415,.F.);
#417=CARTESIAN_POINT('',(45.38282007,17.233068123,-2.));
#418=DIRECTION('',(-0.,-0.,-1.));
#419=DIRECTION('',(1.,0.,-0.));
#420=AXIS2_PLACEMENT_3D('',#417,#418,#419);
#421=CIRCLE('',#420,2.05);
#422=EDGE_CURVE('',#409,#407,#421,.T.);
#423=ORIENTED_EDGE('',*,*,#422,.F.);
#424=EDGE_LOOP('',(#416,#423));
#425=FACE_BOUND('',#424,.T.);
#426=CARTESIAN_POINT('',(43.33282007,-17.363445833,-2.));
#427=VERTEX_POINT('',#426);
#428=CARTESIAN_POINT('',(47.43282007,-17.363445833,-2.));
#429=VERTEX_POINT('',#428);
#430=CARTESIAN_POINT('',(45.38282007,-17.363445833,-2.));
#431=DIRECTION('',(-0.,-0.,-1.));
#432=DIRECTION('',(1.,0.,-0.));
#433=AXIS2_PLACEMENT_3D('',#430,#431,#432);
#434=CIRCLE('',#433,2.05);
#435=EDGE_CURVE('',#427,#429,#434,.T.);
#436=ORIENTED_EDGE('',*,*,#435,.F.);
#437=CARTESIAN_POINT('',(45.38282007,-17.363445833,-2.));
#438=DIRECTION('',(-0.,-0.,-1.));
#439=DIRECTION('',(1.,0.,-0.));
#440=AXIS2_PLACEMENT_3D('',#437,#438,#439);
#441=CIRCLE('',#440,2.05);
#442=EDGE_CURVE('',#429,#427,#441,.T.);
#443=ORIENTED_EDGE('',*,*,#442,.F.);
#444=EDGE_LOOP('',(#436,#443));
#445=FACE_BOUND('',#444,.T.);
#446=ORIENTED_EDGE('',*,*,#328,.T.);
#447=CARTESIAN_POINT('',(45.,-16.960390114,-2.));
#448=DIRECTION('',(-0.,-0.,-1.));
#449=DIRECTION('',(1.,0.,-0.));
#450=AXIS2_PLACEMENT_3D('',#447,#448,#449);
#451=CIRCLE('',#450,3.);
#452=EDGE_CURVE('',#315,#283,#451,.T.);
#453=ORIENTED_EDGE('',*,*,#452,.T.);
#454=ORIENTED_EDGE('',*,*,#288,.T.);
#455=CARTESIAN_POINT('',(23.086336335,-24.960390114,-2.));
#456=DIRECTION('',(0.,0.,1.));
#457=DIRECTION('',(1.,0.,-0.));
#458=AXIS2_PLACEMENT_3D('',#455,#456,#457);
#459=CIRCLE('',#458,5.);
#460=EDGE_CURVE('',#275,#242,#459,.T.);
#461=ORIENTED_EDGE('',*,*,#460,.T.);
#462=ORIENTED_EDGE('',*,*,#248,.F.);
#463=CARTESIAN_POINT('',(23.086336335,24.960390114,-2.));
#464=DIRECTION('',(0.,0.,1.));
#465=DIRECTION('',(1.,0.,-0.));
#466=AXIS2_PLACEMENT_3D('',#463,#464,#465);
#467=CIRCLE('',#466,5.);
#468=EDGE_CURVE('',#234,#183,#467,.T.);
#469=ORIENTED_EDGE('',*,*,#468,.T.);
#470=ORIENTED_EDGE('',*,*,#190,.T.);
#471=CARTESIAN_POINT('',(45.,16.960390114,-2.));
#472=DIRECTION('',(-0.,-0.,-1.));
#473=DIRECTION('',(1.,0.,-0.));
#474=AXIS2_PLACEMENT_3D('',#471,#472,#473);
#475=CIRCLE('',#474,3.);
#476=EDGE_CURVE('',#185,#323,#475,.T.);
#477=ORIENTED_EDGE('',*,*,#476,.T.);
#478=EDGE_LOOP('',(#446,#453,#454,#461,#462,#469,#470,#477));
#479=FACE_BOUND('',#478,.T.);
#480=ADVANCED_FACE('',(#354,#365,#385,#405,#425,#445,#479),#343,.F.);
#481=CARTESIAN_POINT('',(0.,0.,1.));
#482=DIRECTION('',(0.,0.,1.));
#483=DIRECTION('',(1.,0.,0.));
#484=AXIS2_PLACEMENT_3D('',#481,#482,#483);
#485=PLANE('',#484);
#486=CARTESIAN_POINT('',(38.888911128,2.225732431,1.));
#487=VERTEX_POINT('',#486);
#488=CARTESIAN_POINT('',(38.138911128,2.225732431,1.));
#489=DIRECTION('',(0.,0.,1.));
#490=DIRECTION('',(1.,0.,-0.));
#491=AXIS2_PLACEMENT_3D('',#488,#489,#490);
#492=CIRCLE('',#491,0.75);
#493=EDGE_CURVE('',#487,#487,#492,.T.);
#494=ORIENTED_EDGE('',*,*,#493,.F.);
#495=EDGE_LOOP('',(#494));
#496=FACE_BOUND('',#495,.T.);
#497=CARTESIAN_POINT('',(29.664462041,2.225732431,1.));
#498=VERTEX_POINT('',#497);
#499=CARTESIAN_POINT('',(28.914462041,2.225732431,1.));
#500=DIRECTION('',(0.,0.,1.));
#501=DIRECTION('',(1.,0.,-0.));
#502=AXIS2_PLACEMENT_3D('',#499,#500,#501);
#503=CIRCLE('',#502,0.75);
#504=EDGE_CURVE('',#498,#498,#503,.T.);
#505=ORIENTED_EDGE('',*,*,#504,.F.);
#506=EDGE_LOOP('',(#505));
#507=FACE_BOUND('',#506,.T.);
#508=ORIENTED_EDGE('',*,*,#272,.F.);
#509=CARTESIAN_POINT('',(45.,-16.960390114,1.));
#510=DIRECTION('',(0.,0.,1.));
#511=DIRECTION('',(1.,0.,-0.));
#512=AXIS2_PLACEMENT_3D('',#509,#510,#511);
#513=CIRCLE('',#512,3.);
#514=EDGE_CURVE('',#265,#307,#513,.T.);
#515=ORIENTED_EDGE('',*,*,#514,.T.);
#516=ORIENTED_EDGE('',*,*,#312,.F.);
#517=CARTESIAN_POINT('',(45.,16.960390114,1.));
#518=DIRECTION('',(0.,0.,1.));
#519=DIRECTION('',(1.,0.,-0.));
#520=AXIS2_PLACEMENT_3D('',#517,#518,#519);
#521=CIRCLE('',#520,3.);
#522=EDGE_CURVE('',#305,#201,#521,.T.);
#523=ORIENTED_EDGE('',*,*,#522,.T.);
#524=ORIENTED_EDGE('',*,*,#206,.F.);
#525=CARTESIAN_POINT('',(23.086336335,24.960390114,1.));
#526=DIRECTION('',(-0.,-0.,-1.));
#527=DIRECTION('',(1.,0.,-0.));
#528=AXIS2_PLACEMENT_3D('',#525,#526,#527);
#529=CIRCLE('',#528,5.);
#530=EDGE_CURVE('',#193,#223,#529,.T.);
#531=ORIENTED_EDGE('',*,*,#530,.T.);
#532=ORIENTED_EDGE('',*,*,#231,.T.);
#533=CARTESIAN_POINT('',(23.086336335,-24.960390114,1.));
#534=DIRECTION('',(-0.,-0.,-1.));
#535=DIRECTION('',(1.,0.,-0.));
#536=AXIS2_PLACEMENT_3D('',#533,#534,#535);
#537=CIRCLE('',#536,5.);
#538=EDGE_CURVE('',#225,#267,#537,.T.);
#539=ORIENTED_EDGE('',*,*,#538,.T.);
#540=EDGE_LOOP('',(#508,#515,#516,#523,#524,#531,#532,#539));
#541=FACE_BOUND('',#540,.T.);
#542=ORIENTED_EDGE('',*,*,#155,.F.);
#543=EDGE_LOOP('',(#542));
#544=FACE_BOUND('',#543,.T.);
#545=ORIENTED_EDGE('',*,*,#113,.F.);
#546=EDGE_LOOP('',(#545));
#547=FACE_BOUND('',#546,.T.);
#548=ORIENTED_EDGE('',*,*,#80,.F.);
#549=EDGE_LOOP('',(#548));
#550=FACE_BOUND('',#549,.T.);
#551=ORIENTED_EDGE('',*,*,#47,.F.);
#552=EDGE_LOOP('',(#551));
#553=FACE_BOUND('',#552,.T.);
#554=ADVANCED_FACE('',(#496,#507,#541,#544,#547,#550,#553),#485,.T.);
#555=CARTESIAN_POINT('',(45.,16.960390114,-3.));
#556=DIRECTION('',(0.,0.,1.));
#557=DIRECTION('',(1.,0.,-0.));
#558=AXIS2_PLACEMENT_3D('',#555,#556,#557);
#559=CYLINDRICAL_SURFACE('',#558,3.);
#560=ORIENTED_EDGE('',*,*,#476,.F.);
#561=ORIENTED_EDGE('',*,*,#212,.F.);
#562=ORIENTED_EDGE('',*,*,#522,.F.);
#563=ORIENTED_EDGE('',*,*,#334,.F.);
#564=EDGE_LOOP('',(#560,#561,#562,#563));
#565=FACE_BOUND('',#564,.T.);
#566=ADVANCED_FACE('',(#565),#559,.T.);
#567=CARTESIAN_POINT('',(45.,-16.960390114,-3.));
#568=DIRECTION('',(0.,0.,1.));
#569=DIRECTION('',(1.,0.,-0.));
#570=AXIS2_PLACEMENT_3D('',#567,#568,#569);
#571=CYLINDRICAL_SURFACE('',#570,3.);
#572=ORIENTED_EDGE('',*,*,#452,.F.);
#573=ORIENTED_EDGE('',*,*,#320,.F.);
#574=ORIENTED_EDGE('',*,*,#514,.F.);
#575=ORIENTED_EDGE('',*,*,#294,.F.);
#576=EDGE_LOOP('',(#572,#573,#574,#575));
#577=FACE_BOUND('',#576,.T.);
#578=ADVANCED_FACE('',(#577),#571,.T.);
#579=CARTESIAN_POINT('',(23.086336335,-24.960390114,-3.));
#580=DIRECTION('',(0.,0.,1.));
#581=DIRECTION('',(1.,0.,-0.));
#582=AXIS2_PLACEMENT_3D('',#579,#580,#581);
#583=CYLINDRICAL_SURFACE('',#582,5.);
#584=ORIENTED_EDGE('',*,*,#460,.F.);
#585=ORIENTED_EDGE('',*,*,#280,.F.);
#586=ORIENTED_EDGE('',*,*,#538,.F.);
#587=ORIENTED_EDGE('',*,*,#254,.F.);
#588=EDGE_LOOP('',(#584,#585,#586,#587));
#589=FACE_BOUND('',#588,.T.);
#590=ADVANCED_FACE('',(#589),#583,.F.);
#591=CARTESIAN_POINT('',(23.086336335,24.960390114,-3.));
#592=DIRECTION('',(0.,0.,1.));
#593=DIRECTION('',(1.,0.,-0.));
#594=AXIS2_PLACEMENT_3D('',#591,#592,#593);
#595=CYLINDRICAL_SURFACE('',#594,5.);
#596=ORIENTED_EDGE('',*,*,#468,.F.);
#597=ORIENTED_EDGE('',*,*,#239,.F.);
#598=ORIENTED_EDGE('',*,*,#530,.F.);
#599=ORIENTED_EDGE('',*,*,#198,.F.);
#600=EDGE_LOOP('',(#596,#597,#598,#599));
#601=FACE_BOUND('',#600,.T.);
#602=ADVANCED_FACE('',(#601),#595,.F.);
#603=CARTESIAN_POINT('',(45.38282007,-17.363445833,-2.));
#604=DIRECTION('',(0.,0.,-1.));
#605=DIRECTION('',(-1.,0.,0.));
#606=AXIS2_PLACEMENT_3D('',#603,#604,#605);
#607=CYLINDRICAL_SURFACE('',#606,2.05);
#608=CARTESIAN_POINT('',(43.33282007,-17.363445833,-1.));
#609=VERTEX_POINT('',#608);
#610=CARTESIAN_POINT('',(43.33282007,-17.363445833,-2.));
#611=DIRECTION('',(-0.,-0.,1.));
#612=VECTOR('',#611,1.);
#613=LINE('',#610,#612);
#614=EDGE_CURVE('',#427,#609,#613,.T.);
#615=ORIENTED_EDGE('',*,*,#614,.F.);
#616=ORIENTED_EDGE('',*,*,#435,.T.);
#617=ORIENTED_EDGE('',*,*,#442,.T.);
#618=ORIENTED_EDGE('',*,*,#614,.T.);
#619=CARTESIAN_POINT('',(45.38282007,-17.363445833,-1.));
#620=DIRECTION('',(0.,0.,-1.));
#621=DIRECTION('',(-1.,0.,0.));
#622=AXIS2_PLACEMENT_3D('',#619,#620,#621);
#623=CIRCLE('',#622,2.05);
#624=EDGE_CURVE('',#609,#609,#623,.T.);
#625=ORIENTED_EDGE('',*,*,#624,.F.);
#626=EDGE_LOOP('',(#615,#616,#617,#618,#625));
#627=FACE_BOUND('',#626,.T.);
#628=ADVANCED_FACE('',(#627),#607,.F.);
#629=CARTESIAN_POINT('',(0.,0.,-1.));
#630=DIRECTION('',(0.,0.,-1.));
#631=DIRECTION('',(-1.,0.,0.));
#632=AXIS2_PLACEMENT_3D('',#629,#630,#631);
#633=PLANE('',#632);
#634=ORIENTED_EDGE('',*,*,#624,.T.);
#635=EDGE_LOOP('',(#634));
#636=FACE_BOUND('',#635,.T.);
#637=ORIENTED_EDGE('',*,*,#165,.T.);
#638=ORIENTED_EDGE('',*,*,#172,.T.);
#639=EDGE_LOOP('',(#637,#638));
#640=FACE_BOUND('',#639,.T.);
#641=ADVANCED_FACE('',(#636,#640),#633,.T.);
#642=CARTESIAN_POINT('',(45.38282007,17.233068123,-2.));
#643=DIRECTION('',(0.,0.,-1.));
#644=DIRECTION('',(-1.,0.,0.));
#645=AXIS2_PLACEMENT_3D('',#642,#643,#644);
#646=CYLINDRICAL_SURFACE('',#645,2.05);
#647=CARTESIAN_POINT('',(43.33282007,17.233068123,-1.));
#648=VERTEX_POINT('',#647);
#649=CARTESIAN_POINT('',(43.33282007,17.233068123,-2.));
#650=DIRECTION('',(-0.,-0.,1.));
#651=VECTOR('',#650,1.);
#652=LINE('',#649,#651);
#653=EDGE_CURVE('',#407,#648,#652,.T.);
#654=ORIENTED_EDGE('',*,*,#653,.F.);
#655=ORIENTED_EDGE('',*,*,#415,.T.);
#656=ORIENTED_EDGE('',*,*,#422,.T.);
#657=ORIENTED_EDGE('',*,*,#653,.T.);
#658=CARTESIAN_POINT('',(45.38282007,17.233068123,-1.));
#659=DIRECTION('',(0.,0.,-1.));
#660=DIRECTION('',(-1.,0.,0.));
#661=AXIS2_PLACEMENT_3D('',#658,#659,#660);
#662=CIRCLE('',#661,2.05);
#663=EDGE_CURVE('',#648,#648,#662,.T.);
#664=ORIENTED_EDGE('',*,*,#663,.F.);
#665=EDGE_LOOP('',(#654,#655,#656,#657,#664));
#666=FACE_BOUND('',#665,.T.);
#667=ADVANCED_FACE('',(#666),#646,.F.);
#668=CARTESIAN_POINT('',(0.,0.,-1.));
#669=DIRECTION('',(0.,0.,-1.));
#670=DIRECTION('',(-1.,0.,0.));
#671=AXIS2_PLACEMENT_3D('',#668,#669,#670);
#672=PLANE('',#671);
#673=ORIENTED_EDGE('',*,*,#663,.T.);
#674=EDGE_LOOP('',(#673));
#675=FACE_BOUND('',#674,.T.);
#676=ORIENTED_EDGE('',*,*,#123,.T.);
#677=ORIENTED_EDGE('',*,*,#130,.T.);
#678=EDGE_LOOP('',(#676,#677));
#679=FACE_BOUND('',#678,.T.);
#680=ADVANCED_FACE('',(#675,#679),#672,.T.);
#681=CARTESIAN_POINT('',(-16.183491796,-18.52898486,-1.));
#682=DIRECTION('',(0.,0.,-1.));
#683=DIRECTION('',(-1.,0.,0.));
#684=AXIS2_PLACEMENT_3D('',#681,#682,#683);
#685=CYLINDRICAL_SURFACE('',#684,2.05);
#686=CARTESIAN_POINT('',(-18.233491796,-18.52898486,-1.));
#687=VERTEX_POINT('',#686);
#688=CARTESIAN_POINT('',(-18.233491796,-18.52898486,-2.));
#689=DIRECTION('',(-0.,-0.,1.));
#690=VECTOR('',#689,1.);
#691=LINE('',#688,#690);
#692=EDGE_CURVE('',#387,#687,#691,.T.);
#693=ORIENTED_EDGE('',*,*,#692,.F.);
#694=ORIENTED_EDGE('',*,*,#395,.T.);
#695=ORIENTED_EDGE('',*,*,#402,.T.);
#696=ORIENTED_EDGE('',*,*,#692,.T.);
#697=CARTESIAN_POINT('',(-16.183491796,-18.52898486,-1.));
#698=DIRECTION('',(0.,0.,-1.));
#699=DIRECTION('',(-1.,0.,0.));
#700=AXIS2_PLACEMENT_3D('',#697,#698,#699);
#701=CIRCLE('',#700,2.05);
#702=EDGE_CURVE('',#687,#687,#701,.T.);
#703=ORIENTED_EDGE('',*,*,#702,.F.);
#704=EDGE_LOOP('',(#693,#694,#695,#696,#703));
#705=FACE_BOUND('',#704,.T.);
#706=ADVANCED_FACE('',(#705),#685,.F.);
#707=CARTESIAN_POINT('',(0.,0.,-1.));
#708=DIRECTION('',(0.,0.,-1.));
#709=DIRECTION('',(-1.,0.,0.));
#710=AXIS2_PLACEMENT_3D('',#707,#708,#709);
#711=PLANE('',#710);
#712=ORIENTED_EDGE('',*,*,#702,.T.);
#713=EDGE_LOOP('',(#712));
#714=FACE_BOUND('',#713,.T.);
#715=ORIENTED_EDGE('',*,*,#88,.T.);
#716=EDGE_LOOP('',(#715));
#717=FACE_BOUND('',#716,.T.);
#718=ADVANCED_FACE('',(#714,#717),#711,.T.);
#719=CARTESIAN_POINT('',(-8.,24.,-1.));
#720=DIRECTION('',(0.,0.,-1.));
#721=DIRECTION('',(-1.,0.,0.));
#722=AXIS2_PLACEMENT_3D('',#719,#720,#721);
#723=CYLINDRICAL_SURFACE('',#722,2.05);
#724=CARTESIAN_POINT('',(-10.05,24.,-1.));
#725=VERTEX_POINT('',#724);
#726=CARTESIAN_POINT('',(-10.05,24.,-2.));
#727=DIRECTION('',(-0.,-0.,1.));
#728=VECTOR('',#727,1.);
#729=LINE('',#726,#728);
#730=EDGE_CURVE('',#367,#725,#729,.T.);
#731=ORIENTED_EDGE('',*,*,#730,.F.);
#732=ORIENTED_EDGE('',*,*,#375,.T.);
#733=ORIENTED_EDGE('',*,*,#382,.T.);
#734=ORIENTED_EDGE('',*,*,#730,.T.);
#735=CARTESIAN_POINT('',(-8.,24.,-1.));
#736=DIRECTION('',(0.,0.,-1.));
#737=DIRECTION('',(-1.,0.,0.));
#738=AXIS2_PLACEMENT_3D('',#735,#736,#737);
#739=CIRCLE('',#738,2.05);
#740=EDGE_CURVE('',#725,#725,#739,.T.);
#741=ORIENTED_EDGE('',*,*,#740,.F.);
#742=EDGE_LOOP('',(#731,#732,#733,#734,#741));
#743=FACE_BOUND('',#742,.T.);
#744=ADVANCED_FACE('',(#743),#723,.F.);
#745=CARTESIAN_POINT('',(0.,0.,-1.));
#746=DIRECTION('',(0.,0.,-1.));
#747=DIRECTION('',(-1.,0.,0.));
#748=AXIS2_PLACEMENT_3D('',#745,#746,#747);
#749=PLANE('',#748);
#750=ORIENTED_EDGE('',*,*,#740,.T.);
#751=EDGE_LOOP('',(#750));
#752=FACE_BOUND('',#751,.T.);
#753=ORIENTED_EDGE('',*,*,#55,.T.);
#754=EDGE_LOOP('',(#753));
#755=FACE_BOUND('',#754,.T.);
#756=ADVANCED_FACE('',(#752,#755),#749,.T.);
#757=CARTESIAN_POINT('',(28.914462041,2.225732431,-3.3));
#758=DIRECTION('',(0.,0.,1.));
#759=DIRECTION('',(1.,0.,-0.));
#760=AXIS2_PLACEMENT_3D('',#757,#758,#759);
#761=CYLINDRICAL_SURFACE('',#760,0.75);
#762=CARTESIAN_POINT('',(29.664462041,2.225732431,1.));
#763=DIRECTION('',(-0.,-0.,-1.));
#764=VECTOR('',#763,3.);
#765=LINE('',#762,#764);
#766=EDGE_CURVE('',#498,#356,#765,.T.);
#767=ORIENTED_EDGE('',*,*,#766,.F.);
#768=ORIENTED_EDGE('',*,*,#504,.T.);
#769=ORIENTED_EDGE('',*,*,#766,.T.);
#770=ORIENTED_EDGE('',*,*,#362,.F.);
#771=EDGE_LOOP('',(#767,#768,#769,#770));
#772=FACE_BOUND('',#771,.T.);
#773=ADVANCED_FACE('',(#772),#761,.F.);
#774=CARTESIAN_POINT('',(38.138911128,2.225732431,-3.3));
#775=DIRECTION('',(0.,0.,1.));
#776=DIRECTION('',(1.,0.,-0.));
#777=AXIS2_PLACEMENT_3D('',#774,#775,#776);
#778=CYLINDRICAL_SURFACE('',#777,0.75);
#779=CARTESIAN_POINT('',(38.888911128,2.225732431,1.));
#780=DIRECTION('',(-0.,-0.,-1.));
#781=VECTOR('',#780,3.);
#782=LINE('',#779,#781);
#783=EDGE_CURVE('',#487,#345,#782,.T.);
#784=ORIENTED_EDGE('',*,*,#783,.F.);
#785=ORIENTED_EDGE('',*,*,#493,.T.);
#786=ORIENTED_EDGE('',*,*,#783,.T.);
#787=ORIENTED_EDGE('',*,*,#351,.F.);
#788=EDGE_LOOP('',(#784,#785,#786,#787));
#789=FACE_BOUND('',#788,.T.);
#790=ADVANCED_FACE('',(#789),#778,.F.);
#791=CLOSED_SHELL('',(#59,#92,#134,#176,#216,#258,#298,#338,#480,#554,#566,#578,#590,#602,#628,#641,#667,#680,#706,#718,#744,#756,#773,#790));
#792=MANIFOLD_SOLID_BREP('Bottom',#791);
#793=COLOUR_RGB('',0.250980407,0.250980407,0.250980407);
#794=FILL_AREA_STYLE_COLOUR('',#793);
#795=FILL_AREA_STYLE('',(#794));
#796=SURFACE_STYLE_FILL_AREA(#795);
#797=SURFACE_SIDE_STYLE('',(#796));
#798=SURFACE_STYLE_USAGE(.BOTH.,#797);
#799=PRESENTATION_STYLE_ASSIGNMENT((#798));
#26=STYLED_ITEM('',(#799),#792);
#16=SHAPE_REPRESENTATION('root',(#15),#10);
#17=ADVANCED_BREP_SHAPE_REPRESENTATION('root',(#792),#10);
#807=SHAPE_REPRESENTATION_RELATIONSHIP('','',#16,#17);
#808=CARTESIAN_POINT('',(0.,0.,0.));
#809=DIRECTION('',(0.,0.,1.));
#810=DIRECTION('',(1.,0.,0.));
#811=AXIS2_PLACEMENT_3D('',#808,#809,#810);
#813=MAPPED_ITEM('',#812,#811);
#812=REPRESENTATION_MAP(#811,#16);
#814=APPLICATION_CONTEXT('Managed model based 3d engineering');
#815=APPLICATION_PROTOCOL_DEFINITION('international standard','ap242_managed_model_based_3d_engineering',2014,#814);
#816=PRODUCT_CONTEXT('',#814,'mechanical');
#817=PRODUCT_DEFINITION_CONTEXT('part definition',#814,'design');
#24=PRODUCT('root','root','',(#816));
#818=PRODUCT_RELATED_PRODUCT_CATEGORY('part','',(#24));
#819=PRODUCT_DEFINITION_FORMATION_WITH_SPECIFIED_SOURCE('','',#24,.NOT_KNOWN.);
#25=PRODUCT_DEFINITION('design','',#819,#817);
#23=PRODUCT_DEFINITION_SHAPE('','',#25);
#820=SHAPE_DEFINITION_REPRESENTATION(#23,#16);
#11=DRAUGHTING_MODEL('',(#813),#10);
#821=DESCRIPTIVE_REPRESENTATION_ITEM('KEY','/Users/mark/Library/Containers/com.shapr3d.shapr/Data/tmp/CFE6FBAA-78FF-445F-A705-DFEE49B6676C.tmp');
#822=PROPERTY_DEFINITION('KEY','',#25);
#823=REPRESENTATION('',(#821),#10);
#824=PROPERTY_DEFINITION_REPRESENTATION(#822,#823);
#825=GENERAL_PROPERTY('','KEY','');
#826=GENERAL_PROPERTY_ASSOCIATION('','',#825,#822);
#1=MECHANICAL_DESIGN_GEOMETRIC_PRESENTATION_REPRESENTATION('',(#26),#10);
ENDSEC;
END-ISO-10303-21;
